# Blender v3.4.0 OBJ File: 'puerta.blend'
# www.blender.org
mtllib puerta.mtl
o Cube
v 0.000000 2.500000 -0.050000
v 0.000000 0.000000 -0.050000
v 0.000000 2.500000 0.050000
v 0.000000 0.000000 0.050000
v -1.200000 2.500000 -0.050000
v -1.200000 0.000000 -0.050000
v -1.200000 2.500000 0.050000
v -1.200000 0.000000 0.050000
vt 0.881998 0.077196
vt 0.123567 0.077196
vt 0.123567 0.038592
vt 0.881998 0.038592
vt 0.892078 0.014709
vt 0.892078 0.955553
vt 0.099019 0.955553
vt 0.099019 0.014709
vt 0.876741 0.018512
vt 0.876741 0.948213
vt 0.796570 0.948213
vt 0.796570 0.018512
vt 0.749777 0.361940
vt 0.749777 0.638060
vt 0.250223 0.638060
vt 0.250223 0.361940
vt 0.880680 0.025153
vt 0.880680 0.948611
vt 0.805004 0.948611
vt 0.805004 0.025153
vt 0.102788 0.013346
vt 0.102787 0.953664
vt 0.887811 0.953664
vt 0.887812 0.013346
vn 0.0000 1.0000 0.0000
vn 0.0000 0.0000 1.0000
vn -1.0000 0.0000 0.0000
vn 0.0000 -1.0000 0.0000
vn 1.0000 0.0000 0.0000
vn 0.0000 0.0000 -1.0000
usemtl puerta
s off
f 1/1/1 5/2/1 7/3/1 3/4/1
f 4/5/2 3/6/2 7/7/2 8/8/2
f 8/9/3 7/10/3 5/11/3 6/12/3
f 6/13/4 2/14/4 4/15/4 8/16/4
f 2/17/5 1/18/5 3/19/5 4/20/5
f 6/21/6 5/22/6 1/23/6 2/24/6
