# Blender v3.4.0 OBJ File: 'tele.blend'
# www.blender.org
mtllib tele.mtl
o Cube.011_Cube.151
v 0.508766 0.342950 2.503644
v 0.508766 0.642950 2.503644
v 0.008766 0.342950 2.503644
v 0.008766 0.642950 2.503644
v 0.508765 0.342950 0.003644
v 0.508765 0.642950 0.003644
v 0.008764 0.342950 0.003644
v 0.008764 0.642950 0.003644
v 0.508766 0.381317 2.462856
v 0.508766 0.604583 2.462856
v 0.508765 0.604583 0.044432
v 0.508765 0.381317 0.044432
v 0.115907 0.381317 2.462856
v 0.115907 0.604583 2.462856
v 0.115905 0.604583 0.044432
v 0.115905 0.381317 0.044432
vt 0.283291 0.000000
vt 0.283291 0.283291
vt 0.000000 0.283291
vt 0.000000 0.000000
vt 0.283291 0.283291
vt 0.283291 0.566582
vt 0.000000 0.566582
vt 0.000000 0.283291
vt 0.566582 0.000000
vt 0.566582 0.283291
vt 0.283291 0.283291
vt 0.283291 0.000000
vt 0.283291 0.566582
vt 0.283291 0.283291
vt 0.287913 0.319521
vt 0.287913 0.530352
vt 0.000000 0.566582
vt 0.283291 0.566582
vt 0.283291 0.849873
vt 0.000000 0.849873
vt 0.566582 0.000000
vt 0.849873 0.000000
vt 0.849873 0.283291
vt 0.566582 0.283291
vt 0.789169 0.557338
vt 0.789169 0.831385
vt 0.566582 0.831385
vt 0.566582 0.557338
vt 0.566582 0.283291
vt 0.561960 0.319521
vt 0.566582 0.566582
vt 0.561960 0.530352
vt 0.494122 0.840629
vt 0.283291 0.840629
vt 0.283291 0.566582
vt 0.494122 0.566582
vt 0.789169 0.283291
vt 1.000000 0.283291
vt 1.000000 0.505878
vt 0.789169 0.505878
vt 0.789169 0.283291
vt 0.789169 0.557338
vt 0.566582 0.557338
vt 0.566582 0.283291
vt 1.000000 0.728464
vt 0.789169 0.728464
vt 0.789169 0.505878
vt 1.000000 0.505878
vn 0.0000 0.0000 1.0000
vn -1.0000 0.0000 0.0000
vn 0.0000 0.0000 -1.0000
vn 1.0000 -0.0000 -0.0000
vn -0.0000 -1.0000 0.0000
vn 0.0000 1.0000 0.0000
usemtl madera
s off
f 1/1/1 2/2/1 4/3/1 3/4/1
f 3/5/2 4/6/2 8/7/2 7/8/2
f 7/9/3 8/10/3 6/11/3 5/12/3
f 2/13/4 1/14/4 9/15/4 10/16/4
f 3/17/5 7/18/5 5/19/5 1/20/5
f 8/21/6 4/22/6 2/23/6 6/24/6
f 9/25/6 12/26/6 16/27/6 13/28/6
f 1/14/4 5/29/4 12/30/4 9/15/4
f 6/31/4 2/13/4 10/16/4 11/32/4
f 5/29/4 6/31/4 11/32/4 12/30/4
f 16/33/4 15/34/4 14/35/4 13/36/4
f 10/37/3 9/38/3 13/39/3 14/40/3
f 11/41/5 10/42/5 14/43/5 15/44/5
f 12/45/1 11/46/1 15/47/1 16/48/1
o PS_Cube
v 0.237651 0.642950 1.368087
v 0.227016 0.652950 1.368087
v 0.008765 0.642950 1.368087
v 0.008765 0.652950 1.368087
v 0.237651 0.642950 1.139201
v 0.227016 0.652950 1.139201
v 0.008765 0.642950 1.139201
v 0.008765 0.652950 1.139201
v 0.212869 0.642950 1.368087
v 0.212869 0.652950 1.368087
v 0.212869 0.642950 1.139201
v 0.212869 0.652950 1.139201
v 0.212869 0.658651 1.368087
v 0.008765 0.658651 1.368087
v 0.008765 0.658651 1.139201
v 0.212869 0.658651 1.139201
v 0.222122 0.658651 1.368087
v 0.008765 0.658651 1.368087
v 0.008765 0.658651 1.139201
v 0.222122 0.658651 1.139201
v 0.209428 0.676844 1.368087
v 0.008765 0.676844 1.368087
v 0.008765 0.676844 1.139201
v 0.209428 0.676844 1.139201
vt 0.375000 0.035725
vt 0.625000 0.035725
vt 0.625000 0.250000
vt 0.375000 0.250000
vt 0.625000 0.500000
vt 0.375000 0.500000
vt 0.375000 0.714275
vt 0.625000 0.714275
vt 0.625000 0.750000
vt 0.375000 0.750000
vt 0.625000 1.000000
vt 0.375000 1.000000
vt 0.125000 0.714275
vt 0.125000 0.750000
vt 0.875000 0.714275
vt 0.875000 0.750000
vt 0.625000 0.250000
vt 0.625000 0.500000
vt 0.125000 0.500000
vt 0.375000 0.000000
vt 0.625000 0.000000
vt 0.875000 0.500000
vt 0.875000 0.714275
vt 0.625000 0.714275
vt 0.625000 0.035725
vt 0.625000 0.500000
vt 0.625000 0.714275
vt 0.875000 0.714275
vt 0.875000 0.500000
vt 0.625000 0.500000
vt 0.875000 0.500000
vt 0.875000 0.714275
vt 0.625000 0.714275
vn 0.0000 0.0000 1.0000
vn -1.0000 0.0000 0.0000
vn 0.0000 0.0000 -1.0000
vn 0.6850 0.7285 0.0000
vn 0.0000 -1.0000 0.0000
vn 0.0000 1.0000 0.0000
vn 1.0000 0.0000 0.0000
vn 0.8201 0.5722 0.0000
usemtl plastico_negro
s off
f 25/49/7 26/50/7 20/51/7 19/52/7
f 19/52/8 20/51/8 24/53/8 23/54/8
f 27/55/9 28/56/9 22/57/9 21/58/9
f 21/58/10 22/57/10 18/59/10 17/60/10
f 25/61/11 27/55/11 21/58/11 17/62/11
f 28/56/12 26/63/12 18/64/12 22/57/12
f 24/53/8 20/51/8 30/65/8 31/66/8
f 19/67/11 23/54/11 27/55/11 25/61/11
f 23/54/9 24/53/9 28/56/9 27/55/9
f 17/68/7 18/69/7 26/50/7 25/49/7
f 31/66/12 30/70/12 29/71/12 32/72/12
f 26/63/13 28/56/13 32/72/13 29/71/13
f 28/56/9 24/53/9 31/66/9 32/72/9
f 20/51/7 26/50/7 29/73/7 30/65/7
f 35/74/11 36/75/11 33/76/11 34/77/11
f 39/78/12 38/79/12 37/80/12 40/81/12
f 33/76/14 36/75/14 40/81/14 37/80/14
f 35/74/8 34/77/8 38/79/8 39/78/8
f 36/75/9 35/74/9 39/78/9 40/81/9
f 34/77/7 33/76/7 37/80/7 38/79/7
o TV_Cube.152
v 0.092680 0.922107 2.003644
v 0.092680 1.722107 2.003644
v 0.072884 0.925542 1.997204
v 0.072884 1.718673 1.997204
v 0.092679 0.922107 0.503644
v 0.092680 1.722107 0.503644
v 0.072883 0.925542 0.510084
v 0.072884 1.718673 0.510084
v 0.092680 0.936001 1.977594
v 0.092680 1.708214 1.977594
v 0.092680 1.708214 0.529694
v 0.092680 0.936001 0.529694
v 0.085160 0.936001 1.977594
v 0.085160 1.708214 1.977594
v 0.085160 1.708214 0.529694
v 0.085160 0.936001 0.529694
v 0.042672 1.677710 1.920399
v 0.042672 0.966505 1.920399
v 0.042672 0.966505 0.586889
v 0.042672 1.677710 0.586889
vt 0.528483 0.000000
vt 0.593438 0.000000
vt 0.593159 0.395775
vt 0.528762 0.395775
vt 0.344380 0.330813
vt 0.226759 0.330813
vt 0.232834 0.000000
vt 0.338305 0.000000
vt 0.409565 0.395775
vt 0.345168 0.395775
vt 0.344889 0.000000
vt 0.409844 0.000000
vt 0.658393 0.000000
vt 0.657265 0.006874
vt 0.594566 0.006874
vt 0.527974 0.216687
vt 0.410353 0.216687
vt 0.344889 0.547500
vt 0.226250 0.547500
vt 0.658393 0.382038
vt 0.658393 0.000000
vt 0.683065 0.000000
vt 0.683065 0.382038
vt 0.658393 0.395785
vt 0.657265 0.388912
vt 0.593438 0.395785
vt 0.594566 0.388912
vt 0.271313 0.756666
vt 0.271313 0.547500
vt 0.316376 0.547500
vt 0.316376 0.756666
vt 0.707737 0.000000
vt 0.707737 0.382038
vt 0.683065 0.382038
vt 0.683065 0.000000
vt 0.271313 0.547500
vt 0.271313 0.756666
vt 0.226250 0.756666
vt 0.226250 0.547500
vt 0.713882 0.747641
vt 0.656137 0.747641
vt 0.656137 0.395785
vt 0.713882 0.395785
vt 0.589833 1.000000
vt 0.532088 1.000000
vt 0.406239 1.000000
vt 0.348494 1.000000
vt 0.521899 0.547500
vt 0.416428 0.547500
vt 0.999108 0.001652
vt 0.999108 0.998273
vt 0.000800 0.998273
vt 0.000800 0.001652
vn -0.3094 0.0000 0.9509
vn -0.8048 0.5936 0.0000
vn -0.3094 0.0000 -0.9509
vn 1.0000 0.0000 0.0000
vn -0.1710 -0.9853 -0.0000
vn -0.1709 0.9853 0.0000
vn 0.0000 1.0000 0.0000
vn 0.0000 0.0000 -1.0000
vn 0.0000 -1.0000 0.0000
vn 0.0000 0.0000 1.0000
vn -1.0000 0.0000 0.0000
vn -0.9306 0.0000 0.3660
vn -0.9306 0.0000 -0.3660
vn -0.8048 -0.5936 0.0000
usemtl plastico_negro
s off
f 41/82/15 42/83/15 44/84/15 43/85/15
f 44/86/16 48/87/16 60/88/16 57/89/16
f 47/90/17 48/91/17 46/92/17 45/93/17
f 42/83/18 41/94/18 49/95/18 50/96/18
f 43/97/19 47/98/19 45/93/19 41/82/19
f 48/87/20 44/86/20 42/99/20 46/100/20
f 49/101/21 52/102/21 56/103/21 53/104/21
f 41/94/18 45/105/18 52/106/18 49/95/18
f 46/107/18 42/83/18 50/96/18 51/108/18
f 45/105/18 46/107/18 51/108/18 52/106/18
f 50/109/22 49/110/22 53/111/22 54/112/22
f 51/113/23 50/114/23 54/115/23 55/116/23
f 52/117/24 51/118/24 55/119/24 56/120/24
f 58/121/25 57/122/25 60/123/25 59/124/25
f 43/85/26 44/84/26 57/125/26 58/126/26
f 48/91/27 47/90/27 59/127/27 60/128/27
f 47/98/28 43/97/28 58/129/28 59/130/28
usemtl Netflix
f 56/131/18 55/132/18 54/133/18 53/134/18
